<svg xmlns="http://www.w3.org/2000/svg" xmlns:xlink="http://www.w3.org/1999/xlink" width="1920" zoomAndPan="magnify" viewBox="0 0 1440 809.999993" height="1080" preserveAspectRatio="xMidYMid meet" version="1.0"><path fill="#000000" d="M 705.710938 303.238281 C 656.730469 308.636719 616.816406 347.949219 610.90625 396.597656 C 610.523438 399.652344 610.273438 402.71875 610.15625 405.792969 C 610.039062 408.871094 610.050781 411.949219 610.199219 415.023438 C 610.347656 418.101562 610.625 421.164062 611.039062 424.214844 C 611.449219 427.265625 611.992188 430.296875 612.664062 433.300781 C 613.335938 436.308594 614.136719 439.28125 615.066406 442.21875 C 615.992188 445.152344 617.046875 448.046875 618.226562 450.894531 C 619.402344 453.742188 620.703125 456.535156 622.121094 459.269531 C 623.539062 462.007812 625.074219 464.679688 626.722656 467.285156 C 628.371094 469.890625 630.128906 472.421875 631.996094 474.878906 C 633.863281 477.335938 635.832031 479.707031 637.902344 481.996094 C 639.976562 484.28125 642.140625 486.476562 644.402344 488.582031 C 646.664062 490.683594 649.011719 492.6875 651.445312 494.589844 C 653.878906 496.492188 656.390625 498.289062 658.976562 499.980469 C 661.566406 501.667969 664.222656 503.242188 666.945312 504.707031 C 669.671875 506.167969 672.453125 507.511719 675.292969 508.734375 C 678.132812 509.960938 681.023438 511.0625 683.957031 512.042969 C 689.363281 512.902344 691.089844 509.570312 691.089844 506.671875 L 691.089844 488.511719 C 661.171875 494.976562 654.800781 474.121094 654.800781 474.121094 C 649.847656 461.65625 642.8125 458.324219 642.8125 458.324219 C 632.980469 451.660156 643.578125 451.882812 643.578125 451.882812 C 654.375 452.640625 660.101562 462.949219 660.101562 462.949219 C 669.496094 479.277344 685.371094 474.4375 691.527344 471.859375 C 692.496094 464.878906 695.347656 460.148438 698.332031 457.464844 C 674.316406 454.777344 649.183594 445.539062 649.183594 404.613281 C 649.183594 392.6875 653.289062 383.125 660.308594 375.496094 C 659.230469 372.8125 655.445312 361.640625 661.386719 347.136719 C 661.386719 347.136719 670.460938 344.230469 691.089844 358.097656 C 695.492188 356.917969 699.953125 356.03125 704.472656 355.4375 C 708.992188 354.839844 713.53125 354.542969 718.089844 354.542969 C 722.648438 354.542969 727.1875 354.839844 731.707031 355.4375 C 736.222656 356.03125 740.683594 356.917969 745.085938 358.097656 C 765.730469 344.230469 774.792969 347.136719 774.792969 347.136719 C 780.726562 361.640625 776.949219 372.8125 775.871094 375.496094 C 782.886719 383.101562 786.996094 392.6875 786.996094 404.613281 C 786.996094 445.644531 761.714844 454.671875 737.640625 457.355469 C 741.523438 460.6875 745.085938 467.246094 745.085938 477.230469 L 745.085938 506.671875 C 745.085938 509.570312 746.816406 513.007812 752.328125 512.042969 C 753.894531 511.519531 755.445312 510.960938 756.984375 510.371094 C 758.527344 509.777344 760.050781 509.148438 761.5625 508.488281 C 763.074219 507.824219 764.566406 507.128906 766.046875 506.398438 C 767.527344 505.667969 768.988281 504.90625 770.429688 504.109375 C 771.875 503.3125 773.300781 502.480469 774.707031 501.621094 C 776.109375 500.757812 777.496094 499.863281 778.859375 498.941406 C 780.226562 498.015625 781.566406 497.058594 782.886719 496.074219 C 784.207031 495.085938 785.503906 494.070312 786.777344 493.027344 C 788.050781 491.980469 789.300781 490.90625 790.527344 489.804688 C 791.75 488.703125 792.949219 487.574219 794.121094 486.417969 C 795.292969 485.261719 796.4375 484.078125 797.554688 482.867188 C 798.671875 481.660156 799.761719 480.425781 800.824219 479.167969 C 801.882812 477.90625 802.914062 476.625 803.917969 475.320312 C 804.917969 474.015625 805.890625 472.6875 806.832031 471.335938 C 807.769531 469.988281 808.679688 468.617188 809.558594 467.226562 C 810.433594 465.832031 811.28125 464.421875 812.09375 462.992188 C 812.90625 461.5625 813.683594 460.117188 814.429688 458.648438 C 815.175781 457.183594 815.886719 455.703125 816.566406 454.207031 C 817.242188 452.707031 817.886719 451.195312 818.492188 449.667969 C 819.101562 448.140625 819.671875 446.601562 820.210938 445.046875 C 820.746094 443.496094 821.25 441.929688 821.714844 440.355469 C 822.179688 438.777344 822.605469 437.191406 822.996094 435.597656 C 823.390625 434 823.746094 432.398438 824.0625 430.785156 C 824.378906 429.175781 824.660156 427.554688 824.90625 425.929688 C 825.148438 424.308594 825.355469 422.679688 825.523438 421.042969 C 825.691406 419.410156 825.820312 417.773438 825.914062 416.132812 C 826.007812 414.492188 826.0625 412.851562 826.082031 411.210938 C 826.097656 409.566406 826.078125 407.925781 826.019531 406.285156 C 825.960938 404.644531 825.863281 403.003906 825.730469 401.367188 C 825.597656 399.730469 825.425781 398.097656 825.214844 396.46875 C 825.007812 394.839844 824.761719 393.214844 824.476562 391.597656 C 824.195312 389.976562 823.871094 388.367188 823.515625 386.765625 C 823.15625 385.160156 822.761719 383.566406 822.332031 381.980469 C 821.898438 380.394531 821.433594 378.820312 820.929688 377.257812 C 820.421875 375.691406 819.882812 374.140625 819.308594 372.601562 C 818.734375 371.0625 818.121094 369.535156 817.476562 368.023438 C 816.832031 366.511719 816.152344 365.015625 815.4375 363.535156 C 814.722656 362.054688 813.972656 360.59375 813.191406 359.144531 C 812.410156 357.699219 811.59375 356.269531 810.746094 354.863281 C 809.898438 353.453125 809.019531 352.0625 808.105469 350.695312 C 807.195312 349.324219 806.253906 347.976562 805.277344 346.648438 C 804.304688 345.324219 803.300781 344.019531 802.265625 342.738281 C 801.234375 341.460938 800.167969 340.203125 799.078125 338.96875 C 797.984375 337.738281 796.867188 336.53125 795.71875 335.351562 C 794.570312 334.167969 793.398438 333.015625 792.195312 331.886719 C 790.996094 330.761719 789.769531 329.660156 788.519531 328.589844 C 787.269531 327.515625 785.992188 326.472656 784.695312 325.460938 C 783.394531 324.449219 782.074219 323.464844 780.726562 322.511719 C 779.382812 321.558594 778.019531 320.636719 776.628906 319.742188 C 775.242188 318.851562 773.835938 317.992188 772.410156 317.167969 C 770.984375 316.339844 769.539062 315.546875 768.074219 314.785156 C 766.613281 314.023438 765.132812 313.296875 763.636719 312.601562 C 762.140625 311.910156 760.628906 311.25 759.101562 310.625 C 757.574219 310 756.03125 309.410156 754.476562 308.855469 C 752.925781 308.300781 751.359375 307.78125 749.78125 307.300781 C 748.203125 306.816406 746.613281 306.371094 745.015625 305.957031 C 743.414062 305.546875 741.808594 305.175781 740.191406 304.835938 C 738.578125 304.5 736.953125 304.199219 735.324219 303.933594 C 733.695312 303.671875 732.058594 303.445312 730.417969 303.257812 C 728.777344 303.066406 727.136719 302.914062 725.488281 302.800781 C 723.839844 302.6875 722.191406 302.609375 720.539062 302.570312 C 718.890625 302.53125 717.238281 302.53125 715.589844 302.566406 C 713.9375 302.605469 712.289062 302.679688 710.640625 302.789062 C 708.992188 302.902344 707.351562 303.050781 705.710938 303.238281 Z M 705.710938 303.238281 " fill-opacity="1" fill-rule="nonzero"/></svg>